<svg width="465" height="338" viewBox="0 0 465 338" fill="none" xmlns="http://www.w3.org/2000/svg">
<path d="M119.8 162.7C163.983 162.7 199.8 126.614 199.8 82.1C199.8 37.5858 163.983 1.5 119.8 1.5C75.6172 1.5 39.8 37.5858 39.8 82.1C39.8 126.614 75.6172 162.7 119.8 162.7Z" fill="#B1E5FC"/>
<path d="M104.5 8.69997C104.2 9.19997 105.2 10.8 107.1 10.8C109.1 10.8 110 10.5 110.8 12.6C111.7 14.7 110.5 21.9 111.7 24.5C112.8 27.1 116.3 38.4 117.8 36.9C119.2 35.4 122.9 24.1 124.7 23.1C126.5 22.1 127.6 16 127.9 12.7C128.2 9.49997 125.9 6.99998 120.3 6.39998C114.5 5.69998 106.9 5.09997 104.5 8.69997Z" fill="#70BEF2"/>
<path d="M78.5 81C77.6 81.4 77.2 82.2 77.2 83.1C77.3 85.8 76.2 92.7 73.8 94.8C70.7 97.5 71.8 102.6 71.8 104.5C71.7 108.6 72.2 110.5 77 112.4C81.9 114.4 83.8 114.5 84.2 118.4C84.6 122.3 85.1 137.4 86.6 141.4C88 145.3 91.1 151.7 92.7 153.1C94.3 154.6 98.1 155.4 95.8 149.9C93.4 144.3 92 141.8 94.8 138.6C97.5 135.5 102.1 128.3 102.4 125.5C102.8 122.8 104.4 121.1 105.8 120.8C107.2 120.5 110.3 119.5 111.2 118.5C112.1 117.6 110.3 114.7 109.8 112.3C109.3 109.8 109.2 108.4 113.8 106.4C118.3 104.4 116.2 98.9 110 97.4C103.9 95.9 100.1 92.9 100.7 89.7C101.5 86.6 96.5 87 93.6 85.4C90.7 83.9 90.8 81.6 87.5 80.6C83.2 79.3 80.1 80.2 78.5 81Z" fill="#70BEF2"/>
<path d="M178.1 77.6C176.8 75.5 176.9 72.3 180.3 67.9C182.9 64.4 179.2 60.9 177.4 59.6C177.1 59.3 177.2 58.8 177.6 58.7C179.8 58.4 184.9 59.2 187.2 70.6C190.1 85.4 191.3 80.2 192.9 78.5C194.4 76.8 191.6 73.6 194.4 70.3C196.2 68.2 197.1 65.2 197.6 62.6C191.8 39.1 175.8 19.7 154.7 9.5C154.7 12.1 154.1 21 143.7 17.4C143.7 17.4 137.2 14.3 138.8 26.9C140.4 39.5 145.6 26 146.7 25.5C147.7 25 150.5 24.3 149.3 32.7C149.3 32.7 149.1 35.6 143.8 35.1C138.5 34.6 137.5 37.2 137.5 38.5C137.5 39.9 138 43.5 135.1 46.1C132.2 48.7 133 55.4 137 53.1C140.9 50.8 143.6 43.8 147.2 43.2C150.8 42.5 154 47.2 157.4 45.9C160.8 44.7 159.3 38.9 161 38.9C162.7 38.9 166.3 42.3 165.7 45C165.2 47.6 159.9 48.8 161.3 51.9C162.6 55 165.6 54 166.4 56.1C167.2 58.2 162.1 60.5 158.1 58C154 55.4 153.4 59.2 151.3 57.5C149.2 55.8 149.1 52.2 146.2 53.3C143.3 54.5 141.6 56.9 137.9 58.6C134.1 60.3 131.1 62.6 131.1 64.9C131.1 67.3 132.4 69.9 131.8 73.7C131.1 77.5 129.9 87.8 142.2 85.7C154.5 83.6 153 90 153 90.7C153 91.4 152.8 100.3 154 101.9C155.2 103.4 157.9 108 154 113.7C150.1 119.6 151.6 132.6 155.2 130.9C158.8 129.2 162.4 122.5 166.8 119.1C171.2 115.7 177.4 100.7 174.8 96.1C172.2 91.5 178.4 87.7 179.2 84.6C179.8 81.2 179.5 79.7 178.1 77.6Z" fill="#70BEF2"/>
<path d="M62.6 25.6C62.7 28.4 62.4 32.3 60.6 35.2C55 44 55.2 48.4 54.7 57.2C54.2 66 66.3 81.5 69.4 83.1C72.4 84.7 72.9 80.8 72.9 77.7C72.9 74.6 71.6 70.9 69.8 67.3C68 63.7 68 61.4 68.6 59.9C69.2 58.4 71.2 57.9 72.7 59.4C74.1 60.9 77.5 62.1 79.2 61.3C81.2 60.2 80.4 55.7 81.2 54.3C82 52.8 85.8 51.8 87.4 48.7C89 45.6 91.7 44.3 94.9 42.8C98.1 41.3 101 40.7 101.5 39.7C102.1 38.8 101.3 36.5 102.3 33.8C103.2 31.2 105.3 28.1 104.5 26.8C103.6 25.5 100.9 23.4 95.9 26.6C90.9 29.8 89.7 29.8 88.2 27.5C86.8 25 89.8 18.7 96.1 18.7C102.3 18.7 103.6 16.7 103.8 15.3C104 13.8 102 12.2 99.8 11.9C97.6 11.6 97.3 12.8 88.4 16C82.4 18.2 76.9 16.9 74 16.4C69.9 19.3 66.1 22.3 62.6 25.6Z" fill="#70BEF2"/>
<path d="M213.1 96.5C211.9 96.2 212.2 99.2 210.5 99.7C208.9 100.3 208.2 101 208.6 104.1C209 107 208.3 111 206.7 112.5C205.1 114 202.8 115.1 202.6 118.7C202.5 122.4 199.1 125.9 197.1 127.1C195.1 128.3 192 130.2 192 133.3C192 135.3 191.9 137.8 192.4 139.8C203.1 129.4 210.8 116.1 214.4 101C214.3 99.1 213.8 96.7 213.1 96.5Z" fill="#99B9FF"/>
<path d="M72.4 147.5C72.3 147.5 72.1 147.5 72 147.4C62.1 140 53.7 130.3 48.1 119.2C42.1 107.7 39.1 95.1 39.1 82C39.1 37.3 75.2 0.799988 119.7 0.799988C136.5 0.799988 152.7 5.99999 166.4 15.8C166.7 16 166.8 16.4 166.5 16.7C166.3 17 165.9 17.1 165.6 16.8C152.1 7.19999 136.2 1.99999 119.6 1.99999C75.8 1.99999 40.2 37.9 40.2 81.9C40.2 107.3 52.3 131.3 72.6 146.3C72.9 146.5 72.9 146.9 72.7 147.2C72.8 147.4 72.6 147.5 72.4 147.5Z" fill="#70BEF2"/>
<path d="M104.6 95.1C104.6 100.2 96.5 112.5 94.5 115.4C94.3 115.7 93.8 115.7 93.6 115.4C92.2 113.3 87.6 106.4 85.1 100.8C84.2 98.5 83.5 96.5 83.5 95.1C83.5 89.2 88.2 84.6 94 84.6C99.9 84.6 104.6 89.4 104.6 95.1Z" fill="#0086DC"/>
<path d="M94 99.9C96.651 99.9 98.8 97.7509 98.8 95.1C98.8 92.449 96.651 90.3 94 90.3C91.349 90.3 89.2 92.449 89.2 95.1C89.2 97.7509 91.349 99.9 94 99.9Z" fill="white"/>
<path d="M68.7 42.1C68.7 47.6 59.9 60.8 57.8 64C57.6 64.3 57.1 64.3 56.9 64C55.4 61.8 50.5 54.4 47.8 48.3C46.8 45.9 46 43.7 46 42.2C46 36 51.1 30.8 57.4 30.8C63.6 30.8 68.7 35.9 68.7 42.1Z" fill="#0086DC"/>
<path d="M57.5 47.4C60.3719 47.4 62.7 45.0719 62.7 42.2C62.7 39.3281 60.3719 37 57.5 37C54.6281 37 52.3 39.3281 52.3 42.2C52.3 45.0719 54.6281 47.4 57.5 47.4Z" fill="white"/>
<path d="M125.6 11.2C125.6 16 117.8 27.7 116 30.4C115.8 30.7 115.4 30.7 115.2 30.4C113.9 28.4 109.5 21.9 107.2 16.6C106.3 14.5 105.7 12.5 105.7 11.2C105.7 5.69999 110.1 1.29999 115.6 1.29999C121.1 1.29999 125.6 5.69999 125.6 11.2Z" fill="#0086DC"/>
<path d="M115.6 15.7C118.085 15.7 120.1 13.6853 120.1 11.2C120.1 8.7147 118.085 6.69998 115.6 6.69998C113.115 6.69998 111.1 8.7147 111.1 11.2C111.1 13.6853 113.115 15.7 115.6 15.7Z" fill="white"/>
<path d="M95 100C93.9 100 92.6 99.6 91.7 98.9C90.6 98 89.8 96.7 89.6 95.3C89.6 94.9 89.8 94.6 90.2 94.6C90.5 94.6 90.9 94.8 90.9 95.2C91 96.3 91.6 97.3 92.5 98C94.3 99.4 96.9 99.1 98.4 97.2C99.1 96.3 99.3 95.2 99.3 94.1C99.2 93 98.6 92 97.7 91.3C97 90.7 96.2 90.4 95.2 90.4C94.8 90.4 94.6 90.1 94.6 89.7C94.6 89.3 94.9 89.1 95.3 89.1C96.4 89.1 97.6 89.6 98.4 90.2C99.5 91.1 100.3 92.4 100.5 93.8C100.7 95.2 100.3 96.6 99.4 97.8C98.2 99.3 96.6 100 95 100Z" fill="#002050"/>
<path d="M58.4 47.4C57.1 47.4 55.8 47 54.9 46.2C53.7 45.3 52.9 43.8 52.7 42.3C52.7 41.9 52.9 41.6 53.3 41.6C53.7 41.6 54 41.8 54 42.2C54.2 43.4 54.8 44.5 55.7 45.2C56.6 46 57.9 46.2 59.1 46.1C60.3 45.9 61.4 45.3 62.1 44.4C62.9 43.5 63.1 42.2 63 41C62.8 39.8 62.2 38.7 61.3 38C60.5 37.4 59.6 37.1 58.7 37.1C58.3 37.1 58.1 36.8 58.1 36.4C58.1 36 58.4 35.8 58.8 35.8C60 35.8 61.2 36.3 62.1 37C63.3 37.9 64.1 39.4 64.3 40.9C64.5 42.4 64.1 43.9 63.2 45.2C62.3 46.5 60.8 47.2 59.3 47.4C58.9 47.4 58.6 47.4 58.4 47.4Z" fill="#002050"/>
<path d="M116.5 15.9C115.4 15.9 114.2 15.5 113.4 14.9C112.3 14 111.6 12.8 111.4 11.5C111.4 11.1 111.6 10.8 112 10.8C112.4 10.8 112.7 11 112.7 11.4C112.8 12.4 113.4 13.4 114.2 14C115.1 14.7 116.1 14.9 117.1 14.8C118.1 14.7 119.1 14.1 119.7 13.3C121 11.6 120.7 9.1 119 7.7C118.3 7.2 117.6 6.9 116.7 6.8C116.3 6.8 116.1 6.5 116.1 6.1C116.1 5.7 116.4 5.5 116.8 5.5C117.9 5.5 118.9 5.9 119.8 6.5C122.1 8.2 122.4 11.5 120.7 13.8C119.8 14.9 118.6 15.6 117.3 15.8C117 15.9 116.7 15.9 116.5 15.9Z" fill="#002050"/>
<path d="M26.6 117.4C26.5 117.4 26.3 117.4 26.2 117.2C25.9 117 25.9 116.6 26.1 116.3L28.1 113.9C28.3 113.6 28.7 113.6 29 113.8C29.3 114 29.3 114.4 29.1 114.7L27.1 117.1C27 117.4 26.8 117.4 26.6 117.4Z" fill="#002050"/>
<path d="M21.9 123.2C21.8 123.2 21.6 123.2 21.5 123C21.2 122.8 21.2 122.4 21.4 122.1L23.4 119.7C23.6 119.4 24 119.4 24.3 119.6C24.6 119.8 24.6 120.2 24.4 120.5L22.4 122.9C22.2 123.1 22 123.2 21.9 123.2Z" fill="#002050"/>
<path d="M23.6 117.7C23.5 117.7 23.3 117.7 23.2 117.5L20.8 115.5C20.5 115.3 20.5 114.9 20.7 114.6C20.9 114.3 21.3 114.3 21.6 114.5L24 116.5C24.3 116.7 24.3 117.1 24.1 117.4C24 117.6 23.8 117.7 23.6 117.7Z" fill="#002050"/>
<path d="M29.4 122.6C29.3 122.6 29.1 122.6 29 122.4L26.6 120.4C26.3 120.2 26.3 119.8 26.5 119.5C26.7 119.2 27.1 119.2 27.4 119.4L29.8 121.4C30.1 121.6 30.1 122 29.9 122.3C29.8 122.5 29.6 122.6 29.4 122.6Z" fill="#002050"/>
<path d="M223 12.4C222.8 12.4 222.7 12.3 222.5 12.2L220.7 10.4C220.4 10.1 220.4 9.69999 220.7 9.49999C221 9.19999 221.4 9.19999 221.6 9.49999L223.4 11.3C223.7 11.6 223.7 12 223.4 12.2C223.3 12.3 223.1 12.4 223 12.4Z" fill="#002050"/>
<path d="M229.3 18.7C229.1 18.7 229 18.6 228.8 18.5L227 16.7C226.7 16.4 226.7 16 227 15.8C227.3 15.5 227.7 15.5 227.9 15.8L229.7 17.6C230 17.9 230 18.3 229.7 18.5C229.6 18.6 229.5 18.7 229.3 18.7Z" fill="#002050"/>
<path d="M221.2 18.7C221 18.7 220.9 18.6 220.7 18.5C220.4 18.2 220.4 17.8 220.7 17.6L222.5 15.8C222.8 15.5 223.2 15.5 223.4 15.8C223.7 16.1 223.7 16.5 223.4 16.7L221.6 18.5C221.5 18.6 221.4 18.7 221.2 18.7Z" fill="#002050"/>
<path d="M227.5 12.4C227.3 12.4 227.2 12.3 227 12.2C226.7 11.9 226.7 11.5 227 11.3L228.8 9.49999C229.1 9.19999 229.5 9.19999 229.7 9.49999C230 9.79999 230 10.2 229.7 10.4L227.9 12.2C227.9 12.3 227.7 12.4 227.5 12.4Z" fill="#002050"/>
<path d="M401.9 161.1C401.7 161.1 401.6 161 401.4 160.9L399.6 159.1C399.3 158.8 399.3 158.4 399.6 158.2C399.9 157.9 400.3 157.9 400.5 158.2L402.3 160C402.6 160.3 402.6 160.7 402.3 160.9C402.2 161 402 161.1 401.9 161.1Z" fill="#002050"/>
<path d="M408.2 167.4C408 167.4 407.9 167.3 407.7 167.2L405.9 165.4C405.6 165.1 405.6 164.7 405.9 164.5C406.2 164.2 406.6 164.2 406.8 164.5L408.6 166.3C408.9 166.6 408.9 167 408.6 167.2C408.5 167.4 408.4 167.4 408.2 167.4Z" fill="#002050"/>
<path d="M400.1 167.4C399.9 167.4 399.8 167.3 399.6 167.2C399.3 166.9 399.3 166.5 399.6 166.3L401.4 164.5C401.7 164.2 402.1 164.2 402.3 164.5C402.6 164.8 402.6 165.2 402.3 165.4L400.5 167.2C400.4 167.4 400.3 167.4 400.1 167.4Z" fill="#002050"/>
<path d="M406.4 161.1C406.2 161.1 406.1 161 405.9 160.9C405.6 160.6 405.6 160.2 405.9 160L407.7 158.2C408 157.9 408.4 157.9 408.6 158.2C408.9 158.5 408.9 158.9 408.6 159.1L406.8 160.9C406.8 161 406.6 161.1 406.4 161.1Z" fill="#002050"/>
<path d="M281.9 315.3C281.6 315.2 281.4 315.2 281.1 315C280.3 314.6 279.6 313.9 279.3 313C278.6 311.1 279.5 309.2 281.4 308.4C282.3 308.1 283.2 308.1 284 308.4C284.8 308.8 285.5 309.5 285.8 310.4C286.5 312.3 285.6 314.2 283.7 315C283.1 315.5 282.5 315.4 281.9 315.3ZM282.9 309.7C282.5 309.6 282.1 309.6 281.6 309.8C280.4 310.3 279.8 311.5 280.3 312.7C280.5 313.3 281 313.8 281.6 314C282.2 314.2 282.8 314.2 283.3 314.1C284.5 313.6 285.1 312.4 284.6 311.2C284.4 310.6 283.9 310.1 283.3 309.9C283.2 309.7 283.1 309.7 282.9 309.7Z" fill="#002050"/>
<path d="M290.6 310C290.4 310 290.1 309.8 290.1 309.5C290 309.2 290.2 308.8 290.6 308.7C311.4 303.2 330.6 293.8 347.9 280.9C348.2 280.6 348.5 280.7 348.8 281C349.1 281.3 349 281.6 348.7 281.9C331.3 294.9 311.9 304.4 291 309.9C290.8 310 290.7 310 290.6 310Z" fill="#002050"/>
<path d="M322.4 309C322.2 309 322 308.8 322 308.6C321.9 308.3 321.9 307.9 322.3 307.7C331.6 303.5 340.4 298.4 348.7 292.6C349 292.3 349.3 292.4 349.6 292.8C349.9 293.1 349.8 293.4 349.4 293.7C341 299.6 332.1 304.7 322.8 309C322.6 309.1 322.5 309 322.4 309Z" fill="#002050"/>
<path d="M377.1 219.7L187.8 193.4C183.1 192.8 179.5 188.8 179.5 183.9L176.9 51.8C176.9 51.8 181.3 48.7 183.6 47.5C184.8 46.9 186.2 46.6 188.7 46.8L377.4 70.8C381.2 71.4 384.8 75.4 384.8 80.3V210C384.8 212.4 383.8 214.4 382.1 215.7C380.7 217.1 377.1 219.7 377.1 219.7Z" fill="#005EB8"/>
<path d="M371.3 221.4L182.6 197.4C177.9 196.8 174.3 192.8 174.3 187.9V58.2C174.3 53.8 178.2 50.3 183.6 50.8L372.3 74.8C376.1 75.4 379.7 79.4 379.7 84.3V214C379.7 218.6 375.8 222 371.3 221.4Z" fill="white"/>
<path d="M367.4 216.1L187.2 193.1C183.7 192.6 181.1 189.7 181.1 186.2V61.2C181.1 58.3 183.7 55.9 187.6 56.3L367.8 79.3C370.4 79.8 372.9 82.7 372.9 86.2V211.3C372.9 214.2 370.3 216.5 367.4 216.1Z" fill="#70BEF2"/>
<path d="M359.5 210.2L194.8 189.2C191.7 188.8 189.3 186.1 189.3 183V68.5C189.3 65.8 191.7 63.7 194.4 64.1L359.1 85.1C362.2 85.5 364.6 88.2 364.6 91.3V205.7C364.6 208.4 362.3 210.4 359.5 210.2Z" fill="#B1E5FC"/>
<path d="M372.3 222.2C371.9 222.2 371.6 222.2 371.3 222.1L210.2 201.6C209.8 201.6 209.6 201.2 209.6 200.9C209.6 200.5 210 200.3 210.3 200.3L371.4 220.8C373.3 221.1 375.3 220.4 376.8 219.2C378.2 217.9 379.1 216.1 379.1 214.1V112.2C379.1 111.8 379.4 111.6 379.7 111.6C380.1 111.6 380.3 111.9 380.3 112.2V214.1C380.3 216.4 379.4 218.5 377.6 220.2C376.2 221.4 374.3 222.2 372.3 222.2Z" fill="#002050"/>
<path d="M174.2 180.9C173.8 180.9 173.6 180.6 173.6 180.3V85.5C173.6 85.1 173.9 84.9 174.2 84.9C174.5 84.9 174.8 85.2 174.8 85.5V180.3C174.9 180.6 174.6 180.9 174.2 180.9Z" fill="#002050"/>
<path d="M261.2 297.8L67.1 272.7C65.6 272.5 64.7 271.2 64.7 270C64.7 269.1 64.8 262.9 64.8 262.9L167.4 204.3C172.5 201.4 179.2 200.2 185.1 201L376.8 225.7C377.9 225.9 379 226.6 379.4 227.7L379.7 228.5C379.7 228.5 379.5 233.6 379.6 234.8C379.7 235.7 379.2 236.7 378.3 237.3L278.2 294.4C273 297.4 267.1 298.6 261.2 297.8Z" fill="#005EB8"/>
<path d="M91 269L67.8 266C65.2 265.7 64.6 262.3 66.8 261L166.3 204.1C171.4 201.2 177.4 199.9 183.2 200.7L376.7 225.7C379.3 226 379.9 229.4 377.7 230.7L278.2 287.5C273.1 290.4 267.1 291.7 261.3 290.9L91 269Z" fill="#B1E5FC"/>
<path d="M299.2 259.4L131.5 237.5C129.1 237.2 128.6 234.1 130.6 233L170 210.7C174.6 208.1 180 207 185.3 207.7L353 229.6C355.4 229.9 355.9 233 353.9 234.1L314.5 256.4C309.8 259.1 304.5 260.1 299.2 259.4Z" fill="#70BEF2"/>
<path d="M264.6 291.8C263.5 291.8 262.2 291.7 261.1 291.6L166.4 279.5C166 279.5 165.8 279.1 165.8 278.8C165.8 278.4 166.2 278.2 166.5 278.2L261.2 290.3C266.9 291.1 272.8 289.8 277.8 287L377.3 230.1C378.2 229.5 378.4 228.6 378.3 227.9C378.2 227.1 377.6 226.4 376.5 226.2L183 201.2C177.3 200.4 171.4 201.7 166.4 204.5L152.5 212.4C152.2 212.6 151.8 212.5 151.6 212.2C151.4 211.9 151.5 211.5 151.8 211.3L165.7 203.4C170.9 200.4 177.1 199.2 183 200L376.5 225C377.9 225.2 379.1 226.2 379.3 227.6C379.6 229 378.9 230.4 377.7 231.1L278.4 287.9C274.3 290.6 269.5 291.8 264.6 291.8Z" fill="#70BEF2"/>
<path d="M311.7 138.3H448.4C457 138.3 463.8 131.4 463.8 122.9V28.8C463.8 20.2 456.9 13.4 448.4 13.4H311.7C303.1 13.4 296.3 20.3 296.3 28.8V122.7C296.3 131.3 303.2 138.3 311.7 138.3Z" fill="white"/>
<path d="M315.5 30.6H353.9C355 30.6 356 29.6 356 28.5C356 27.4 355 26.4 353.9 26.4H315.5C314.4 26.4 313.4 27.4 313.4 28.5C313.3 29.6 314.3 30.6 315.5 30.6Z" fill="#B1E5FC"/>
<path d="M309.3 39.5H360C361.1 39.5 362.1 38.5 362.1 37.4C362.1 36.3 361.1 35.3 360 35.3H309.3C308.2 35.3 307.2 36.3 307.2 37.4C307.2 38.5 308.2 39.5 309.3 39.5Z" fill="#B1E5FC"/>
<path d="M309.3 57.1H359.9C361 57.1 362 56.1 362 55C362 53.9 361 52.9 359.9 52.9H309.3C308.2 52.9 307.2 53.9 307.2 55C307.1 56.1 308 57.1 309.3 57.1Z" fill="#B1E5FC"/>
<path d="M309.4 65.8H359.2C360.3 65.8 361.3 64.8 361.3 63.7C361.3 62.6 360.3 61.6 359.2 61.6H309.5C308.4 61.6 307.4 62.6 307.4 63.7C307.2 65 308.2 65.8 309.4 65.8Z" fill="#B1E5FC"/>
<path d="M309.1 74.7H358.8C359.9 74.7 360.9 73.7 360.9 72.6C360.9 71.5 359.9 70.5 358.8 70.5H309.1C308 70.5 307 71.5 307 72.6C306.9 73.7 307.9 74.7 309.1 74.7Z" fill="#B1E5FC"/>
<path d="M309.3 83.5H359.9C361 83.5 362 82.5 362 81.4C362 80.3 361 79.3 359.9 79.3H309.3C308.2 79.3 307.2 80.3 307.2 81.4C307.1 82.6 308 83.5 309.3 83.5Z" fill="#B1E5FC"/>
<path d="M309.4 92.3H360C361.1 92.3 362.1 91.3 362.1 90.2C362.1 89.1 361.1 88.1 360 88.1H309.4C308.3 88.1 307.3 89.1 307.3 90.2C307.2 91.3 308.2 92.3 309.4 92.3Z" fill="#B1E5FC"/>
<path d="M339.5 48.2H360C361.1 48.2 362.1 47.2 362.1 46.1C362.1 45 361.1 44 360 44H339.5C338.4 44 337.4 45 337.4 46.1C337.3 47.4 338.2 48.2 339.5 48.2Z" fill="#B1E5FC"/>
<path d="M309.1 48.2H329.1C330.2 48.2 331.2 47.2 331.2 46.1C331.2 45 330.2 44 329.1 44H309.1C308 44 307 45 307 46.1C307.1 47.4 307.9 48.2 309.1 48.2Z" fill="#B1E5FC"/>
<path d="M373 92.4H449.6C450.7 92.4 451.7 91.4 451.7 90.3C451.7 89.2 450.7 88.2 449.6 88.2H373C371.9 88.2 370.9 89.2 370.9 90.3C370.8 91.6 371.7 92.4 373 92.4Z" fill="#B1E5FC"/>
<path d="M421.2 83.5H449.6C450.7 83.5 451.7 82.5 451.7 81.4C451.7 80.3 450.7 79.3 449.6 79.3H421.2C420.1 79.3 419.1 80.3 419.1 81.4C419.1 82.6 420.1 83.5 421.2 83.5Z" fill="#B1E5FC"/>
<path d="M387.1 130.8H411C413.4 130.8 415.3 128.9 415.3 126.5V104.6C415.3 102.2 413.4 100.3 411 100.3H387.1C384.7 100.3 382.8 102.2 382.8 104.6V126.5C382.8 128.8 384.8 130.8 387.1 130.8Z" fill="#01AFBD"/>
<path d="M426.2 130.8H450.1C452.5 130.8 454.4 128.9 454.4 126.5V104.6C454.4 102.2 452.5 100.3 450.1 100.3H426.2C423.8 100.3 421.9 102.2 421.9 104.6V126.5C421.9 128.8 423.8 130.8 426.2 130.8Z" fill="#ED8B00"/>
<path d="M309.1 130.8H333C335.4 130.8 337.3 128.9 337.3 126.5V104.6C337.3 102.2 335.4 100.3 333 100.3H309.1C306.7 100.3 304.8 102.2 304.8 104.6V126.5C304.8 128.8 306.7 130.8 309.1 130.8Z" fill="#177FDD"/>
<path d="M348.1 130.8H372C374.4 130.8 376.3 128.9 376.3 126.5V104.6C376.3 102.2 374.4 100.3 372 100.3H348.1C345.7 100.3 343.8 102.2 343.8 104.6V126.5C343.8 128.8 345.7 130.8 348.1 130.8Z" fill="#005EB8"/>
<path d="M375.6 72H444.3C446.9 72 449 69.9 449 67.3V31C449 28.4 446.9 26.3 444.3 26.3H375.6C373 26.3 370.9 28.4 370.9 31V67.4C370.8 70 373 72 375.6 72Z" fill="#0086DC"/>
<path d="M451.5 139.2H308.8C301.5 139.2 295.5 133.2 295.5 125.9V25.9C295.5 18.6 301.5 12.6 308.8 12.6H451.5C458.8 12.6 464.8 18.6 464.8 25.9V125.8C464.8 133.1 458.8 139.2 451.5 139.2ZM308.8 14.3C302.4 14.3 297.3 19.4 297.3 25.8V125.7C297.3 132.1 302.4 137.2 308.8 137.2H451.5C457.9 137.2 463 132.1 463 125.7V25.9C463 19.5 457.9 14.4 451.5 14.4H308.8V14.3Z" fill="#5479F7"/>
<path d="M389.8 111.1H392.1V120.1H389.8V111.1Z" fill="white"/>
<path d="M399.3 106.3L393.2 110.8V120.4L399.3 124.9V106.3Z" fill="white"/>
<path d="M404.8 108.1L404.1 108.9C407.8 111.9 408.4 117.4 405.3 121.1C404.9 121.6 404.5 122 404 122.4L404.7 123.2C408.9 119.8 409.6 113.7 406.2 109.5C405.8 109 405.3 108.5 404.8 108.1Z" fill="white"/>
<path d="M403.1 110.2L402.4 111C405 113.1 405.3 116.8 403.3 119.4C403 119.7 402.8 120 402.4 120.3L403.1 121.1C406.1 118.6 406.6 114.2 404.1 111.2C403.8 110.9 403.5 110.5 403.1 110.2Z" fill="white"/>
<path d="M401.4 112.3L400.7 113.1C402.1 114.2 402.3 116.3 401.2 117.7C401.1 117.9 400.9 118 400.7 118.2L401.4 119C403.3 117.5 403.5 114.8 402 112.9C401.8 112.7 401.6 112.5 401.4 112.3Z" fill="white"/>
<path d="M352.4 106V125.1H362.2V119.5H367.8V106H352.4ZM360.8 119.7H355.7V117.6H360.8V119.7ZM364.5 115.7H355.7V113.6H364.5V115.7ZM364.5 111.8H355.7V109.7H364.5V111.8Z" fill="white"/>
<path d="M363.9 124.7L367.3 121.3H363.9V124.7Z" fill="white"/>
<path d="M318.1 121.5C317.9 121.5 317.6 121.6 317.4 121.6C315.2 121.6 313.5 119.9 313.5 117.7C313.5 117.5 313.5 117.4 313.5 117.2L309.1 115.7C309 116.3 308.9 117 308.9 117.6C308.9 122.3 312.7 126.1 317.4 126.1C318.2 126.1 319 126 319.8 125.8L318.1 121.5Z" fill="white"/>
<path d="M314 115.8C314.6 114.8 315.5 114.1 316.6 113.9V109.2C313.4 109.5 310.8 111.5 309.5 114.3L314 115.8Z" fill="white"/>
<path d="M318.1 109.2V113.9C319.9 114.3 321.2 115.8 321.2 117.7C321.2 119.1 320.5 120.3 319.4 121L321.1 125.3C323.9 123.9 325.8 121 325.8 117.7C325.9 113.2 322.5 109.6 318.1 109.2Z" fill="white"/>
<path d="M333.2 110.6H326.7V112.3H333.2V110.6Z" fill="white"/>
<path d="M333.2 107.7H326.7V109.4H333.2V107.7Z" fill="white"/>
<path d="M330.6 104.9H326.7V106.6H330.6V104.9Z" fill="white"/>
<path d="M272.2 102.5C273.3 102.4 278.8 113.6 295.8 113.1C312.9 112.6 326.6 93.5 326.6 93.5C326.6 93.5 332.5 83.6 337 80C341.4 76.4 342.2 75.9 342.2 75.9C342.2 75.9 343.6 77.8 342.2 80C340.8 82.2 336.9 86.3 336.9 86.3C336.9 86.3 341.2 88.7 339.3 93.6C337.1 99.2 330.8 98.8 330.8 98.8C330.8 98.8 318.2 155 265.8 128.3L272.2 102.5Z" fill="#FFB6B6"/>
<path d="M291.8 136C283.9 136 275.1 133.5 265.5 128.7C265.2 128.6 265.1 128.3 265.2 128L271.6 102.4C271.7 102.1 271.9 101.9 272.2 101.9C272.8 101.9 273.1 102.3 274 103.3C276.6 106.1 282.6 112.9 295.9 112.6C312.3 112.1 325.7 94 326.3 93.3C326.7 92.6 332.4 83.2 336.8 79.6C341.2 76 342 75.5 342 75.5C342.3 75.3 342.7 75.4 342.9 75.6C343 75.7 344.5 77.9 342.9 80.3C341.8 82.1 339.1 85 338 86.2C339.2 87.1 341.6 89.7 340 93.8C338 98.8 333.1 99.3 331.5 99.4C330.6 102.9 324.3 124.7 306.8 132.9C302 134.9 297.1 136 291.8 136ZM266.4 127.9C281.7 135.6 295.1 136.9 306 131.7C324.4 123 330.1 98.9 330.2 98.6C330.3 98.3 330.5 98.1 330.9 98.1C331.1 98.1 336.8 98.5 338.8 93.3C340.5 88.9 336.9 86.9 336.7 86.8C336.5 86.7 336.4 86.5 336.4 86.3C336.4 86.1 336.4 85.9 336.6 85.8C336.6 85.8 340.5 81.7 341.8 79.6C342.6 78.5 342.4 77.3 342.1 76.8C341.4 77.3 340.1 78.3 337.5 80.5C333.1 84 327.3 93.8 327.3 93.9C326.7 94.7 313.2 113.3 296 113.8C295.6 113.8 295.2 113.8 295 113.8C281.9 113.8 275.9 107.1 273.2 104.2C273 104 272.8 103.8 272.7 103.6L266.4 127.9Z" fill="#002050"/>
<path d="M187.3 128.2C187.3 128.2 192.4 95.1 210.6 86.9C228.8 78.8 253.3 79.9 260.1 84C266.9 88.1 284.5 106.5 284.5 106.5L268.9 128.3C268.9 128.3 273.7 183.1 271 198.5C271 198.5 246.7 195.5 238.9 194.3C232.3 193.3 217.8 192.7 202 189.8L204 125.7L187.3 128.2Z" fill="#F7941D"/>
<path d="M243.8 73.6C243.7 73.6 243.7 73.6 243.8 73.6C239.1 72.8 237 69.3 236.9 69.2C236.7 68.9 236.8 68.5 237.1 68.3C237.4 68.1 237.8 68.2 238 68.5C238 68.5 239.9 71.7 243.9 72.3C244.3 72.4 244.5 72.7 244.4 73C244.4 73.4 244.1 73.6 243.8 73.6Z" fill="black"/>
<path d="M198.9 30.3L206.5 44.9C209.5 50.9 202.1 60.8 189.9 66.9C177.6 73.1 165.2 73.3 162.1 67.4L154.5 52.8L198.9 30.3Z" fill="#005EB8"/>
<path d="M172 72.4C166.7 72.4 163 70.7 161.4 67.7L153.8 53.1C153.7 52.9 153.7 52.8 153.8 52.6C153.9 52.4 154 52.3 154.1 52.2L198.6 29.7C198.9 29.5 199.3 29.7 199.5 30L207.1 44.6C208 46.4 208.1 48.6 207.3 50.9C205.4 56.7 198.9 63 190.2 67.5C184.1 70.5 177.9 72.2 172.6 72.3C172.3 72.4 172.2 72.4 172 72.4ZM155.3 53.1L162.6 67.1C165.5 72.8 177.6 72.5 189.6 66.4C197.9 62.2 204.4 56 206.2 50.5C206.9 48.4 206.9 46.6 206 45.1L198.7 31.1L155.3 53.1Z" fill="#002050"/>
<path d="M150.9 49.1L168.8 27.9C169.2 27.5 169.7 27.3 170.1 27.2L197.8 25.3L206.9 20.7L209.2 25C209.3 25.3 209.3 25.7 209.1 25.9L183.5 53C183.1 53.4 182.6 53.6 182.2 53.7L145 58.4C144.6 58.4 144.3 58.2 144.2 58L141.9 53.6L150.9 49.1Z" fill="#70BEF2"/>
<path d="M144.8 59.1C144.2 59.1 143.8 58.8 143.6 58.3L141.3 53.9C141.2 53.7 141.2 53.6 141.3 53.4C141.4 53.2 141.5 53.1 141.6 53L150.6 48.5L168.4 27.4C168.9 26.9 169.4 26.6 170.1 26.5L197.7 24.6L206.7 20.1C207 19.9 207.4 20.1 207.6 20.4L209.9 24.8C210.2 25.4 210.1 25.9 209.7 26.4L184.1 53.5C183.6 54 183.1 54.3 182.4 54.4L145.2 59.1C144.9 59.1 144.9 59.1 144.8 59.1ZM142.7 53.9L144.7 57.8C144.7 57.9 144.8 57.9 144.9 57.9L182.1 53.2C182.5 53.2 182.8 53 183 52.7L208.6 25.6C208.7 25.5 208.7 25.4 208.6 25.4L206.6 21.5L198.1 25.9C198 25.9 197.9 26 197.9 26L170.2 27.8C169.8 27.8 169.5 28 169.3 28.3L151.5 49.5C151.4 49.6 151.4 49.6 151.3 49.7L142.7 53.9Z" fill="#002050"/>
<path d="M141.9 52.7L167.5 25.6C167.9 25.2 168.4 25 168.8 24.9L206 20.2C206.8 20.1 207.1 21 206.7 21.5L181.1 48.6C180.7 49 180.2 49.2 179.8 49.3L142.6 54C141.9 54.2 141.5 53.3 141.9 52.7Z" fill="#005EB8"/>
<path d="M142.5 54.7C141.9 54.7 141.5 54.4 141.3 53.9C141 53.3 141.1 52.8 141.5 52.3L167.1 25.2C167.6 24.7 168.1 24.4 168.8 24.3L206 19.6C206.6 19.5 207.1 19.8 207.4 20.4C207.7 21 207.6 21.5 207.2 22L181.6 49.1C181.1 49.6 180.6 49.9 179.9 50L142.7 54.7C142.7 54.7 142.6 54.7 142.5 54.7ZM142.4 53.2C142.3 53.3 142.3 53.4 142.4 53.4C142.4 53.5 142.5 53.5 142.6 53.5L179.8 48.8C180.2 48.8 180.5 48.6 180.7 48.3L206.3 21.2C206.4 21.1 206.4 21 206.3 21C206.3 20.9 206.2 20.9 206.1 20.9L168.9 25.6C168.5 25.6 168.2 25.8 168 26.1L142.4 53.2Z" fill="#002050"/>
<path d="M160.9 65.6C161.6 65.5 162.2 66 162.4 66.6L166.3 85.9L161 86.6L159.8 66.9C159.7 66.3 160.2 65.7 160.9 65.6Z" fill="#F7941D"/>
<path d="M161 87.3C160.9 87.3 160.7 87.2 160.6 87.2C160.5 87.1 160.4 86.9 160.4 86.7L159.2 67C159.1 66 159.9 65.1 160.9 64.9C161.9 64.8 162.9 65.5 163.1 66.4L167 85.7C167 85.9 167 86.1 166.9 86.2C166.8 86.3 166.6 86.4 166.5 86.5L161 87.3ZM161 66.2C160.6 66.3 160.3 66.6 160.3 67L161.5 86L165.5 85.4L161.7 66.7C161.7 66.4 161.4 66.1 161 66.2Z" fill="#002050"/>
<path d="M161.1 66C160.8 66 160.5 65.8 160.5 65.4L158.9 52.1C158.9 51.9 158.9 51.7 159.1 51.6L173.6 35.9C173.8 35.6 174.2 35.6 174.5 35.9C174.8 36.1 174.8 36.5 174.5 36.8L160.2 52.2L161.8 65.3C161.8 65.6 161.5 65.9 161.1 66Z" fill="#002050"/>
<path d="M246.1 80.4L246.5 71.8C247.2 71.8 245.7 71.8 245.8 71.8C249.7 71.8 253.4 68.7 253.7 65.7C253.8 64.8 254.4 63.7 254.3 62.5C254.2 61 253.8 61 253.4 59.1C253.3 58.7 256.2 54.7 256.5 54.2L253.9 53C252.7 52.1 250.6 52.2 249.6 50.9C248.8 49.7 247.6 46.5 246.7 46.1C244.1 45 233.6 39.9 227.8 48.7C223.2 55.6 230.7 65.1 233.4 68.3C234.1 69.1 229.8 81 229.8 81L224.9 82.1C224.9 82.1 223.6 88.6 239.1 85.2C250.2 82.7 251.4 81.3 251.4 81.3L246.1 80.4Z" fill="#FFB6B6"/>
<path d="M231 37.5C233.8 36.9 237.1 37.3 238.5 36.8C240.7 36 240.8 33.6 243.9 32.9C247.6 32 249.2 33.6 250.6 35.5C250.8 35.8 251 36.3 251.3 36.6C253.6 42.4 249.5 44.1 248.3 45C248.3 45 240 49.1 238.6 50.2C237.3 51.2 236.7 54.8 237.7 58.5C237.8 58.9 237.6 59.4 237.1 59.6C236.5 59.9 236 59.7 235.6 59.3C234.6 57.8 232.1 54.9 230.5 55.7C228.4 56.6 229 62.4 233.7 63.1C235.2 63.3 236.3 64.7 236.3 66C236.2 66.9 235.3 68 233.8 68.3C232.9 68.5 232.1 68.2 231.3 67.7C228.3 65.9 219.6 58.2 218.4 51.4C217.1 43.5 227.2 38.2 231 37.5Z" fill="#002050"/>
<path d="M245.9 55.4C246.3 55.3 246.4 54.9 246.3 54.6L245.7 52.9C245.6 52.6 245.2 52.4 244.9 52.5C244.5 52.6 244.4 53 244.5 53.3L245.1 55C245.1 55.3 245.5 55.5 245.9 55.4Z" fill="#002050"/>
<path d="M246.6 71.9C246.4 71.9 246.3 71.8 246.3 71.7C246.2 71.5 247.3 71.1 247.5 71C250.9 69.7 253.1 67.7 253.9 65.3C255 62 253.2 58.9 253.2 58.8C255 56.4 256.3 54.3 256.1 53.9C255.9 53.6 254.3 53 253 52.6C250.8 52 249.5 51.8 249 50.7C246.4 44.8 243.9 43.3 243.8 43.3C243.6 43.2 243.6 43 243.7 42.8C243.8 42.6 244 42.6 244.2 42.7C244.3 42.8 246.6 44.4 249.6 50.4C249.8 50.8 251.9 51.5 253.3 52C255.2 52.7 256.4 53.1 256.7 53.5C257.4 54.4 255.3 57 253.9 58.6C254.3 59.4 255.6 62.3 254.6 65.4C253.7 68 251.5 70.1 247.9 71.5C247.6 71.7 246.6 71.9 246.6 71.9Z" fill="#002050"/>
<path d="M242.9 52.7C242.5 52.6 242.4 52.4 242.5 52.2C242.5 52.1 243.4 50.8 244.8 49.8C245 49.7 245.2 49.7 245.3 49.9C245.4 50.1 245.4 50.3 245.2 50.4C244 51.2 243.1 52.5 243.1 52.5C243 52.6 243 52.7 242.9 52.7Z" fill="#002050"/>
<path d="M254.1 64.3C252.4 64.8 251.3 63.9 250.9 63.5C250.2 62.8 249.9 62 250 61.4C250.1 61 250.3 60.7 250.6 60.6C251.2 60.3 251.9 60.5 252.6 60.8C253.3 61 253.9 60.8 253.9 60.8C254.1 60.7 254.3 60.8 254.3 61C254.4 61.2 254.3 61.4 254.1 61.4C254.1 61.4 253.2 61.7 252.3 61.4C251.9 61.3 251.2 61 250.8 61.2C250.7 61.3 250.6 61.4 250.5 61.6C250.4 61.9 250.7 62.5 251.2 63.1C251.6 63.5 252.6 64.2 254.2 63.6C254.4 63.5 254.6 63.6 254.6 63.8C254.7 64 254.6 64.2 254.4 64.2C254.4 64.3 254.2 64.3 254.1 64.3Z" fill="#002050"/>
<path d="M246.3 71.8L246.1 80.4" stroke="#002050" stroke-width="0.75" stroke-miterlimit="10"/>
<path d="M231 58.4L233.8 59.2L231.9 60.9" stroke="#002050" stroke-width="0.5" stroke-miterlimit="10"/>
<path d="M86.5 266.1L30.7 265.5C20.6 265.5 12 258.9 10.2 248.9L0.499976 194.6C-0.600024 188.2 4.29998 182.2 10.8 182.2H47.2L86.5 266.1Z" fill="#70BEF2"/>
<path d="M53.2 332.4H43.9V265.4L53.2 265.8V332.4Z" fill="#70BEF2"/>
<path d="M70.2 321.2H28.9C22.5 321.2 17.3 326.4 17.3 332.8H82C82 326.4 76.8 321.2 70.2 321.2Z" fill="#70BEF2"/>
<path d="M15.6 224.7C15.3 224.7 15 224.5 15 224.2L10.4 197.9C10.3 197.6 10.6 197.2 10.9 197.2C11.2 197.1 11.6 197.4 11.6 197.7L16.2 224C16.3 224.3 16 224.7 15.6 224.7C15.7 224.7 15.7 224.7 15.6 224.7Z" fill="white"/>
<path d="M68.2 138.1C71.9 137.8 77.1 142.4 78.3 146C80.1 151.4 77.6 152.3 75.3 156C69.6 164.7 60.1 184.5 49.2 191C40.5 196.1 22.3 195.2 14 184.6C6.09999 174.5 4.79999 159.8 13.8 153.2C21.9 147.2 29.5 157.5 38.1 151.9C46.6 146.4 46.4 142 51.4 139.3C56.8 136.4 57.8 138.9 68.2 138.1Z" fill="#002050"/>
<path d="M120.6 299.7C120.5 300 124.3 317.1 124.3 317.1L115.7 315.7L113.1 301.2L120.6 299.7Z" fill="#FFB6B6"/>
<path d="M119.6 311.6C120.2 311.1 120.9 310.7 121.9 310.7C123.3 310.6 124.6 311.6 125.2 312.9C126.7 316.2 130.6 325.5 131.7 333C132.1 335.6 130.1 337.8 127 336.1C121.9 333.3 114.7 326.6 111 317C110.5 315.9 110.7 314.6 111.5 313.7C112.1 312.9 112.8 312 113.8 311.1C114.7 310.3 116 310.3 116.8 311L117.7 311.7C118.2 312 119 312 119.6 311.6Z" fill="white"/>
<path d="M129.1 337.2C128.4 337.2 127.6 337 126.6 336.5C121.2 333.5 114.1 326.8 110.3 317C109.8 315.7 110 314.3 110.8 313.1C111.6 312.1 112.3 311.2 113.2 310.5C114.3 309.6 115.9 309.5 117.1 310.4L118 311.1C118.4 311.4 118.9 311.4 119.3 311.1C120.1 310.4 121 310.1 121.9 310.1C123.5 310 125.1 311 125.9 312.7C127.5 316.3 131.4 325.4 132.5 332.9C132.8 334.5 132.2 336 131.1 336.8C130.6 336.9 129.9 337.2 129.1 337.2ZM115.3 310.9C114.9 310.9 114.4 311.1 114.2 311.4C113.4 312.1 112.8 312.9 112 313.9C111.4 314.7 111.2 315.7 111.6 316.6C115.2 326.1 122.1 332.5 127.3 335.4C128.4 336.1 129.5 336.2 130.2 335.6C131 335.1 131.2 334.1 131.1 333C130 325.6 126.2 316.6 124.6 313C124.1 311.9 123 311.1 121.9 311.2C121.2 311.2 120.6 311.5 120 312C119.1 312.7 118 312.7 117.2 312L116.3 311.3C116 311.1 115.6 310.9 115.3 310.9Z" fill="#002050"/>
<path d="M129.8 334.2C129.1 334.2 121.8 333.7 112.9 316.3C112.7 316 112.9 315.6 113.2 315.4C113.5 315.2 113.9 315.4 114.1 315.7C122.7 332.8 129.8 332.9 129.9 332.9C130.2 332.9 130.5 333.2 130.5 333.5C130.4 333.9 130.2 334.2 129.8 334.2Z" fill="#002050"/>
<path d="M124.2 324.6C123.9 324.6 123.7 324.4 123.6 324.2C123.5 323.9 123.6 323.5 124 323.4L128.1 321.8C128.4 321.7 128.8 321.8 128.9 322.2C129 322.5 128.9 322.9 128.5 323L124.4 324.6C124.4 324.6 124.3 324.6 124.2 324.6Z" fill="#002050"/>
<path d="M122.8 321.5C122.5 321.5 122.3 321.3 122.2 321.1C122.1 320.8 122.2 320.4 122.6 320.3L127.4 318.4C127.7 318.3 128.1 318.4 128.2 318.8C128.3 319.1 128.2 319.5 127.8 319.6L123 321.5C123 321.5 122.9 321.5 122.8 321.5Z" fill="#002050"/>
<path d="M83.8 299.6C83.7 299.7 83.1999 301.8 82.8999 305.1C82.1999 310.8 88.6 316 88.6 316L73.7 314L74.3 300.9L83.8 299.6Z" fill="#FFB6B6"/>
<path d="M77.1 310.2C78 309.9 77.8 308.6 78.5 307.9C79.5 307 81 307 82.2 307.6C85.4 309.2 94.2 313.9 99.8 319C101.8 320.8 101.6 323.8 98 324.4C92.2 325.4 82.6 324.9 73.6 319.7C72.6 319.1 71.9 318 71.9 316.9C71.9 316 71.9 312.7 72.1 311.5C72.3 310.4 73.3 309.5 74.5 309.5H75.5C76.4 309.6 76.4 310.5 77.1 310.2Z" fill="white"/>
<path d="M92.8 325.6C87.1 325.6 80 324.3 73.4 320.4C72.2 319.7 71.4 318.4 71.3 317C71.3 316 71.3 312.7 71.5 311.4C71.8 310 73 308.9 74.4 308.9H75.4C76.1 308.9 76.3 309.3 76.6 309.5C76.7 309.6 76.7 309.6 76.8 309.7C77 309.6 77.1 309.4 77.2 308.9C77.4 308.4 77.5 307.9 78 307.5C79.2 306.5 80.7 306.3 82.4 307.1C85.9 308.9 94.6 313.5 100.2 318.6C101.4 319.7 101.9 321.2 101.5 322.5C101.3 323.3 100.6 324.7 98.1 325.1C96.6 325.4 94.8 325.6 92.8 325.6ZM74.5 310.1C73.6 310.1 72.9 310.8 72.8 311.6C72.6 312.7 72.6 316 72.6 316.9C72.6 317.8 73.2 318.8 74 319.3C82.7 324.3 92.1 325 97.9 323.9C99.2 323.6 100.1 323 100.4 322.2C100.7 321.3 100.3 320.3 99.5 319.6C94 314.6 85.5 310 82 308.2C81.1 307.8 80 307.4 79 308.4C78.8 308.6 78.7 308.9 78.6 309.3C78.4 309.9 78.2 310.6 77.4 310.8C76.6 311.1 76.2 310.6 76 310.4C75.8 310.2 75.8 310.2 75.6 310.2L74.5 310.1Z" fill="#002050"/>
<path d="M92.6 322.9C88.8 322.9 83 321.9 74.7 318.2C74.4 318.1 74.2 317.7 74.4 317.4C74.5 317.1 74.9 316.9 75.2 317.1C92.8 325 98.2 320.5 98.3 320.4C98.6 320.2 99 320.2 99.2 320.5C99.4 320.8 99.4 321.2 99.1 321.4C99.1 321.5 97.3 322.9 92.6 322.9Z" fill="#002050"/>
<path d="M88.5 317.6C88.4 317.6 88.3 317.6 88.2 317.5C87.9 317.3 87.8 316.9 88 316.6L90.2 312.7C90.4 312.4 90.8 312.3 91.1 312.5C91.4 312.7 91.5 313.1 91.3 313.4L89.1 317.3C89 317.5 88.8 317.6 88.5 317.6Z" fill="#002050"/>
<path d="M85.5 316.1C85.4 316.1 85.3 316.1 85.2 316C84.9 315.8 84.8 315.4 85 315.1L87.5 311.1C87.7 310.8 88.1 310.7 88.4 310.9C88.7 311.1 88.8 311.5 88.6 311.8L86.1 315.8C85.8 316 85.6 316.1 85.5 316.1Z" fill="#002050"/>
<path d="M43.4 233.9C43.4 233.9 95.7 231.6 101.5 236.9C109.3 244.1 122.6 304.1 122.6 304.1L109.7 307.7C109.7 307.7 90.3 258.4 85.5 258.4C80.7 258.4 35.4 256.8 35.4 256.8L43.4 233.9Z" fill="#002050"/>
<path d="M33 232.2C33 232.2 26.1 252.4 31.6 256.1C37.1 259.8 76.7 259.5 75.3 259C73.9 258.5 71.8 292.2 71.8 305.2L84.3 305.7C84.3 305.7 104.2 253.7 102 247.9C98.1 237.5 69.3 234 59.8 232.6C57.9 232.3 33 232.2 33 232.2Z" fill="#002050"/>
<path d="M95.3999 276.7C95.2999 276.7 95.2999 276.7 95.1999 276.7C94.8999 276.6 94.7 276.2 94.8 275.9C95.3 274.5 95.7 273.2 96.1 271.7C99.6 260.9 102.6 251.6 101.4 248C98.7999 240.1 79.0999 237.1 72.5999 236.1C72.1999 236 71.9999 235.7 72.0999 235.4C72.1999 235 72.5 234.8 72.8 234.9C84.3 236.7 100 239.9 102.6 247.7C103.9 251.8 101 260.8 97.3 272.2C96.8 273.5 96.3999 274.9 95.9999 276.4C95.8999 276.6 95.6999 276.7 95.3999 276.7Z" fill="#CADDFF"/>
<path d="M39.2 170.8C39.2 170.8 39.4 167.5 37.3 202.3C37.3 202.3 38.7 229.3 38.9 232.3C39.1 235.3 65.4 234 65.4 234C68.5 220.4 68.1 204.7 66 187.9L70.5 187.5L70.8 177C69.9 173.9 66.5 171.7 64.2 170.9C58.1 168 47.2 168.9 39.2 170.8Z" fill="white"/>
<path d="M53.7 234.8C53.2 234.8 52.8 234.8 52.3 234.8C40.2 234.7 38.4 233.5 38.4 232.2C38.2 229.2 36.8 202.5 36.8 202.2C36.8 202.2 36.8 202.2 36.8 202.1C37.7 187.5 38.1 179.6 38.4 175.3C38.5 173.2 38.6 172 38.7 171.3C38.7 171 38.7 170.8 38.8 170.6V170.5V170.4C38.9 169.9 39 169.8 39.5 169.8C39.5 169.8 39.6 169.8 39.7 169.8C47.4 168 58.4 167.1 64.9 169.9C67.1 170.7 71 172.9 71.8 176.4C71.8 176.5 71.8 176.5 71.8 176.6L71.5 187.1C71.5 187.4 71.2 187.7 70.9 187.7L67 188.1C69.4 206.5 69.1 221.5 66.3 233.8C66.2 234.1 66 234.3 65.7 234.3C65.5 234.6 59.7 234.8 53.7 234.8ZM38 202.3C38.1 203.4 39.4 229.3 39.6 232.3C39.7 232.4 40.6 233.6 52.7 233.7C58.1 233.7 63.4 233.5 65 233.4C67.7 221.2 67.8 206.3 65.5 188C65.5 187.8 65.5 187.7 65.6 187.5C65.7 187.4 65.9 187.3 66 187.3L70 186.9L70.3 177C69.5 174.4 66.6 172.3 64.2 171.3C58.1 168.6 47.5 169.5 39.9 171.2C39.7 172.9 39.4 179 38 202.3Z" fill="#002050"/>
<path d="M73.1 233.6L72 178.1C71.6 175.5 70.7 174.4 68.5 173C67.6 172.4 66.2 171.8 65 171.6C65 171.6 64.4 171.2 64.2 174.6C64.1 176.2 66.2 194.5 66.6 210.1C66.9 221.1 65.3 230.6 65.4 232.7C65.4 232.9 72.6 234.3 73.1 233.8V233.6Z" fill="#F7941D"/>
<path d="M55 200.1C54.8 200.1 54.5 200 54.4 199.8C54.2 199.5 54.4 199.1 54.7 198.9C60.8 195.7 61.3 186.5 61.3 186.4C61.3 186 61.6 185.8 62 185.8C62.4 185.8 62.6 186.1 62.6 186.5C62.6 186.9 62.1 196.4 55.4 200C55.2 200.1 55.1 200.1 55 200.1Z" fill="#002050"/>
<path d="M43.6 170.3C43.6 170.3 37.3 169.5 33.2 175.1C29.1 180.7 28.7 186.9 29.4 192C30.7 200.6 36.1 210.4 35.8 213.1C35.7 214.4 34.3 223.6 29.1 231.9C24.8 238.7 25 253.8 25.8 254.2C31.5 257.5 40.7 264.2 51.8 265C53.9 265.2 55.5 264.1 55.8 262.4C56.9 255.8 60.2 236.7 60.6 218.7C61 203.1 49.9 179.5 49.4 177.5C48.4 172.8 43.6 170.3 43.6 170.3Z" fill="#F7941D"/>
<path d="M49.5 211.9C54.7 223.7 63.9 226.6 79.1 228.5L77.5 233C54.9 235.8 50.5 231.4 41.5 219.4L49.5 211.9Z" fill="#F7941D"/>
<path d="M71.4 191.2C72.5 200.9 87.9 215.5 96.1 218.6L90.6 222.8C83.5 223.1 74.2 214.9 71 211.9L71.4 191.2Z" fill="#F7941D"/>
<path d="M86.7 219.9C86.9 219.5 87.3 219.1 87.6 219C87.9 218.9 88.2 218.7 88.5 218.6L92.5 216.5C93.3 216.1 94.3 217 95.1 217.3C97.5 218.1 102.3 219.9 101.9 221.6C101.4 223.4 97.3 222.5 95.8 222.2C95.4 222.1 92.4 223.2 91.4 223.3C90.1 223.4 89.8 223 89.1 222.7C88.8 222.5 88.4 222.5 88.1 222.5C87.5 222.5 87.1 222.3 86.7 221.8C86.3 221.3 86.2 220.7 86.5 220.1L86.7 219.9Z" fill="#FFB6B6"/>
<path d="M91 223.9C90.1 223.9 89.6 223.6 89.1 223.3C89 223.2 88.9 223.2 88.8 223.1C88.6 223 88.3 222.9 88 222.9C87.2 222.9 86.6 222.5 86.1 222C85.5 221.3 85.4 220.4 85.8 219.6L85.9 219.4C86.2 218.8 86.7 218.5 87.2 218.3C87.5 218.2 87.7 218.1 88.1 217.9L92.1 215.8C93 215.4 93.8 215.8 94.5 216.2C94.8 216.3 95 216.5 95.2 216.5C103 219.1 102.6 220.9 102.4 221.5C102.3 222 102 222.4 101.5 222.6C100.1 223.5 97.2 223 95.5 222.5C95.2 222.5 94.5 222.8 93.9 223C92.9 223.3 91.8 223.7 91.3 223.7C91.4 223.9 91.2 223.9 91 223.9ZM93 217.1C92.9 217.1 92.9 217.1 92.8 217.1L88.8 219.2C88.4 219.4 88.1 219.6 87.9 219.7C87.7 219.8 87.4 220 87.2 220.3L87.1 220.5C86.9 220.8 87 221.3 87.2 221.5C87.4 221.8 87.8 222 88.1 222C88.6 222 89 222.1 89.3 222.3C89.4 222.4 89.5 222.4 89.6 222.5C90.1 222.8 90.4 222.9 91.3 222.9C91.8 222.9 92.8 222.5 93.7 222.2C95.2 221.7 95.6 221.6 95.9 221.7C98.3 222.3 100.3 222.4 101 221.9C101.2 221.8 101.3 221.7 101.3 221.5C101.4 220.9 99.8 219.5 94.9 217.9C94.6 217.8 94.3 217.7 94 217.5C93.8 217.2 93.3 217.1 93 217.1Z" fill="#002050"/>
<path d="M38.3 241.4C36.7 241.4 34.9 241.1 32.9 240.3C32.6 240.2 32.4 239.8 32.5 239.5C32.6 239.2 33 239 33.3 239.1C43.4 243.2 48.4999 234 48.6999 233.6C48.8999 233.3 49.2999 233.2 49.5999 233.3C49.8999 233.5 50 233.9 49.9 234.2C49.8 234.3 45.8 241.4 38.3 241.4Z" fill="white"/>
<path d="M72.6 213C72.3 213 72 212.7 72 212.4L71.4 197.3C71.4 196.9 71.7 196.6 72 196.6C72.4 196.6 72.7 196.9 72.7 197.2L73.3 212.3C73.3 212.7 73 213 72.6 213Z" fill="white"/>
<path d="M64.9 234.5C59.1 234.5 56.4 233.3 52.8 231.7C51.9 231.3 50.9999 230.9 49.9999 230.5C46.9 229.3 44.7 227.4 42.8 224.4C41.9 223 41.2 221.6 40.4 220C39.7 218.8 39.1 217.4 38.4 216.2C38.2 215.9 38.2999 215.5 38.5999 215.3C38.8999 215.1 39.2999 215.2 39.4999 215.5C40.2999 216.7 40.8999 218.1 41.5999 219.4C42.3999 220.8 43 222.2 43.9 223.7C45.7 226.5 47.6999 228.2 50.4999 229.4C51.4999 229.9 52.5 230.3 53.4 230.6C58 232.7 61.1999 234 71.1999 232.9C72.0999 232.8 75.4 232.8 76 232.9C76.4 232.9 76.5999 233.2 76.5999 233.6C76.5999 234 76.3 234.2 75.9 234.2C75 234.2 71.9 234.1 71.3 234.2C68.8 234.4 66.7 234.5 64.9 234.5Z" fill="white"/>
<path d="M60.3999 224C60.2999 224 60.1999 224 60.0999 223.9L56.4999 222.1L56.3999 222C54.0999 219.4 52.3999 214.9 50.7999 210.5C50.6999 210.2 50.8999 209.8 51.1999 209.7C51.4999 209.6 51.8999 209.8 51.9999 210.1C53.3999 214.4 55.0999 218.7 57.1999 221.2L60.5999 222.9C60.8999 223.1 60.9999 223.4 60.8999 223.8C60.7999 223.9 60.5999 224 60.3999 224Z" fill="white"/>
<path d="M75.3999 230.7C75.5999 230.3 76 229.9 76.3 229.8C76.6 229.7 76.8999 229.5 77.1999 229.4L81.1999 227.3C81.9999 226.9 83 227.8 83.8 228.1C86.2 228.9 91 230.7 90.6 232.4C90.1 234.2 85.9999 233.3 84.4999 233C84.0999 232.9 81.1 234 80.1 234.1C78.8 234.2 78.5 233.8 77.8 233.5C77.5 233.3 77.1 233.3 76.8 233.3C76.2 233.3 75.7999 233.1 75.3999 232.6C74.9999 232.1 74.8999 231.5 75.1999 230.9L75.3999 230.7Z" fill="#FFB6B6"/>
<path d="M79.9 234.7C79 234.7 78.5 234.4 78 234.1C77.9 234 77.8 234 77.7 233.9C77.5 233.8 77.2 233.7 76.9 233.7C76.1 233.7 75.5 233.3 75 232.8C74.4 232.1 74.3 231.2 74.7 230.4L74.8 230.2C75.1 229.6 75.6 229.3 76.1 229.1C76.4 229 76.6 228.9 77 228.7L81 226.6C81.9 226.2 82.7 226.6 83.4 227C83.7 227.1 83.9 227.3 84.1 227.3C91.9 229.9 91.5 231.7 91.3 232.3C91.2 232.8 90.9 233.2 90.4 233.4C89 234.3 86.1 233.8 84.4 233.3C84.1 233.3 83.4 233.6 82.8 233.8C81.8 234.1 80.7 234.5 80.2 234.5C80.2 234.7 80 234.7 79.9 234.7ZM81.8 227.7C81.7 227.7 81.7 227.7 81.6 227.7L77.6 229.8C77.2 230 76.9 230.2 76.7 230.3C76.4 230.4 76.2 230.6 76 230.9L75.9 231.1C75.7 231.4 75.8 231.9 76 232.1C76.2 232.4 76.6 232.6 76.9 232.6C77.4 232.6 77.8 232.7 78.1 232.9C78.2 233 78.3 233 78.4 233.1C78.9 233.4 79.2 233.5 80.1 233.5C80.6 233.5 81.6 233.1 82.5 232.8C84 232.3 84.4 232.2 84.7 232.3C87.1 232.9 89.1 233 89.8 232.5C90 232.4 90.1 232.3 90.1 232.1C90.2 231.5 88.6 230.1 83.7 228.5C83.4 228.4 83.1 228.3 82.8 228.1C82.5 228 82.1 227.7 81.8 227.7Z" fill="#002050"/>
<path d="M72.8 163.5C73.4 163.4 73.7 162.9 73.7 162.4C72.9 159 73.2 153.1 73.1 153.3C71.9 155.1 69.3 152.8 65.7 152.7C63.5 152.6 62.8 153.9 62.4 155C62.3 155.4 61.8 155.4 61.6 155.1C61 154.2 60.2 153.6 58.9 154.9C57.4 156.4 62.1 156.8 60.8 159.8C60.5 160.2 54.6 166.9 50.7 171.1C49.9 172 50 173.3 50.9 173.9L54.4 176.5C56.6 178.2 59.6 178.3 61.9 176.8L62.5 176.4C63.1 176 63.2 175.3 62.7 174.8L61.7 173.7C60.8 172.7 61 171.4 61.5 170.3L63.7 166.6C64.2 167.2 64.8 167.9 65.4 168.3C66.5 169.1 68 169 69 168C70.4 166.7 71.4 165.2 71.8 163.7L72.8 163.5Z" fill="#FFB6B6"/>
<path d="M97.2 232.4L109.3 196.6C110.1 195.5 111.3 194.8 112.6 194.8H145C146.5 194.8 147.4 196.2 146.9 197.4C146.7 197.9 146.5 198.4 146.3 198.9L135.3 232.3C135.3 234.3 133.7 235.8 131.7 235.8H72C70 235.8 68.4 234.2 68.4 232.2L97.2 232.4Z" fill="#002050"/>
<path d="M121.2 213.2C120.7 214.7 121.5 216.2 122.7 216.7C124 217.1 125.4 216.2 125.9 214.7C126.4 213.2 125.6 211.7 124.4 211.2C123.2 210.7 121.7 211.7 121.2 213.2Z" fill="#F7941D"/>
<path d="M191.6 235.4H48C45.4 235.4 43.3 238 43.6 240.8L53.5 334.7H60.7L54.5 246.5C54.4 245 55.5 243.7 57 243.7H180.3C182.5 243.7 184.2 245.7 184 248.1L177.9 335.4H185.1L195.2 239.6C195.2 237.3 193.7 235.4 191.6 235.4Z" fill="white"/>
<path d="M184.9 336H177.7C177.5 336 177.4 335.9 177.2 335.8C177.1 335.7 177 335.5 177 335.3L183.1 248C183.2 247 182.8 246 182.2 245.4C181.6 244.7 180.9 244.5 180 244.5H56.7999C56.2999 244.5 55.8999 244.7 55.4999 245.1C55.0999 245.6 54.8999 246.1 54.8999 246.7L61.0999 334.9C61.0999 335.1 61.0999 335.3 60.8999 335.4C60.7999 335.5 60.5999 335.6 60.3999 335.6H53.1999C52.8999 335.6 52.5999 335.4 52.5999 335L42.6999 241.1C42.4999 239.5 43.0999 237.9 44.0999 236.7C44.9999 235.7 46.3999 235 47.7999 235H191.5C192.6 235 193.6 235.5 194.3 236.3C195.2 237.2 195.5 238.5 195.4 239.7L185.3 335.5C185.4 335.7 185.2 336 184.9 336ZM178.3 334.7H184.3L194.3 239.4C194.4 238.5 194.1 237.6 193.5 236.9C192.9 236.3 192.3 236 191.5 236H47.9999C46.9999 236 45.9999 236.5 45.2999 237.2C44.3999 238.1 44.0999 239.4 44.2999 240.6L54.0999 334.1H60.0999L53.9999 246.6C53.8999 245.7 54.2999 244.7 54.8999 244C55.4999 243.3 56.1999 243.1 57.0999 243.1H180.4C181.5 243.1 182.7 243.6 183.4 244.4C184.3 245.3 184.7 246.7 184.6 248L178.3 334.7Z" fill="#005EB8"/>
<path d="M69.7 150.4C66.5 153.4 64.6 151.6 64.6 151.6C64.6 151.6 63.2 149.7 62.2 149C61.2 148.3 57.4 148.3 56.4 152.1C55.5 155.9 60 156.7 60 156.7C64.7 161.5 62.5 167.5 62.5 167.5C70.2 172 72.6 164.3 73.2 164.4C73.2 164.4 76.2 163.3 76.9 162.7C77.6 162.1 75.5 159.5 75.5 159.5C75.5 159.5 75.4 156.8 76.3 155.2C77.1 153.7 77.2 153.7 77.2 153.7L77.9 152.5C77.7 152.7 72.9 147.3 69.7 150.4Z" fill="#FFB6B6"/>
<path d="M71.7 152.6C71.6 152.4 71.7 152.2 71.9 152.1C73.8 151.2 75.2 152.4 75.7 153C75.8 153.2 75.8 153.4 75.7 153.6C75.5 153.7 75.3 153.7 75.1 153.6C75 153.6 74 152.2 71.9 152.9C71.9 152.7 71.8 152.7 71.7 152.6Z" fill="#002050"/>
<path d="M72.4 155.9C71.9 156.7 72 157.1 72.3 157.2C72.6 157.3 72.9 157.3 73.4 156.2C73.9 155.3 73.7 155 73.4 154.9C73 154.8 72.8 155.1 72.4 155.9Z" fill="#002050"/>
<path d="M56.6 150.1C57.2 149.2 58.2 148.5 59.4 148.3C60.6 148.1 61.8 148.3 62.8 149.1C64 150 64.8 151.4 64.7 153C64.6 153.2 64.5 153.4 64.3 153.4C64.1 153.3 63.9 153.2 63.9 153C64 151.8 63.3 150.5 62.3 149.8C61.4 149.2 60.5 148.9 59.6 149.2C58.7 149.4 57.8 149.9 57.2 150.7C56.1 152.4 56.4 154.7 58.1 155.9C58.8 156.4 59.4 156.6 60.2 156.6C60.5 156.6 60.6 156.7 60.6 157C60.6 157.3 60.5 157.4 60.2 157.4C59.3 157.4 58.4 157.1 57.6 156.6C55.8 154.9 55.4 152.2 56.6 150.1Z" fill="#002050"/>
<path d="M58 153.6C58.1 153.4 58.2 153.2 58.4 153.2L61.2 153.3L60.3 150.5C60.3 150.3 60.3 150.1 60.6 150C60.8 150 61 150 61.1 150.3C61.1 150.3 62.1 153.6 61.9 154.1C61.9 154.1 58.6 154 58.4 154C58.1 153.9 58.1 153.8 58 153.6Z" fill="#002050"/>
<path d="M68.9 163.3C68.9 163.1 69.1 162.9 69.3 162.9C69.5 162.9 69.7 163.1 69.7 163.3C69.9 165.1 71.9 165.5 72 165.5C72.2 165.6 72.4 165.8 72.3 166C72.3 166.2 72.1 166.3 71.8 166.3C71.4 166.2 70.8 166 70.3 165.6C69.7 165 69.1 164.5 68.9 163.3Z" fill="#002050"/>
<path d="M246.273 56.9769C248.416 55.9534 249.362 53.4672 248.386 51.4238C247.41 49.3804 244.882 48.5537 242.739 49.5773C240.596 50.6008 239.65 53.087 240.626 55.1304C241.602 57.1738 244.13 58.0005 246.273 56.9769Z" stroke="#002050" stroke-miterlimit="10.0008"/>
<path d="M248.6 51.6L249.4 50.9" stroke="#002050" stroke-miterlimit="10"/>
<path d="M240.8 55.7L235.3 59.3" stroke="#002050" stroke-miterlimit="10"/>
<path d="M229.1 79.3L221.6 83L236.3 91.3L239.1 85.1L229.1 79.3Z" fill="#F9A94A"/>
<path d="M242.8 91.1L254.3 82.1L247.9 80.6L239.1 85.1L242.8 91.1Z" fill="#F9A94A"/>
<path d="M237.4 193.6C238.1 192.3 241.7 101.2 239.1 85.1L236.4 91.3L221.7 82.9" stroke="white" stroke-miterlimit="10"/>
<path d="M237.1 98.2C237.763 98.2 238.3 97.6627 238.3 97C238.3 96.3372 237.763 95.8 237.1 95.8C236.437 95.8 235.9 96.3372 235.9 97C235.9 97.6627 236.437 98.2 237.1 98.2Z" stroke="white" stroke-miterlimit="10"/>
<path d="M236.5 115.8C237.218 115.8 237.8 115.218 237.8 114.5C237.8 113.782 237.218 113.2 236.5 113.2C235.782 113.2 235.2 113.782 235.2 114.5C235.2 115.218 235.782 115.8 236.5 115.8Z" stroke="white" stroke-miterlimit="10"/>
<path d="M236.5 134.2C237.107 134.2 237.6 133.708 237.6 133.1C237.6 132.492 237.107 132 236.5 132C235.892 132 235.4 132.492 235.4 133.1C235.4 133.708 235.892 134.2 236.5 134.2Z" stroke="white" stroke-miterlimit="10"/>
<path d="M235.7 154C236.363 154 236.9 153.463 236.9 152.8C236.9 152.137 236.363 151.6 235.7 151.6C235.037 151.6 234.5 152.137 234.5 152.8C234.5 153.463 235.037 154 235.7 154Z" stroke="white" stroke-miterlimit="10"/>
<path d="M267.6 151.3H232.3L243.3 112H278.6L267.6 151.3Z" fill="#002050"/>
<path d="M189.7 127.9L209 125.4C209 125.4 205.9 150.5 242 136.5C242 136.5 240.7 132.6 240.9 128.1C241.1 123.6 243.8 127.9 244.2 131.6C244.6 135.3 253.1 133.8 258.2 132.4C263.3 131 270 131.9 258.2 138.4C246.4 144.9 243.8 142 243.8 142C243.8 142 228.8 163.1 210 158.6C186.9 153.2 189.7 127.9 189.7 127.9Z" fill="#FFB6B6"/>
<path d="M215.2 159.9C213.4 159.9 211.6 159.7 209.8 159.2C197.6 156.3 192.7 147.8 190.6 141.3C188.4 134.3 189.1 128.1 189.1 127.8C189.1 127.5 189.4 127.3 189.7 127.2L209 124.7C209.2 124.7 209.4 124.7 209.5 124.9C209.6 125 209.7 125.2 209.7 125.4C209.7 125.5 208.8 133.2 214.1 137.3C219.3 141.4 228.5 140.9 241.2 136.1C240.8 134.9 240.1 131.7 240.2 128C240.2 127.4 240.3 125.5 241.5 125.4C243 125.4 244.4 129 244.6 131.5C244.7 132 244.9 132.4 245.3 132.5C247.4 133.9 253.3 132.9 257.8 131.6C260.4 130.8 264.3 130.5 265.1 132.3C265.5 133.2 265.2 134.9 258.3 138.8C248.9 144 245.2 143.3 243.7 142.7C242.7 144.1 239.2 148.4 234.1 152.3C227.9 157.4 221.4 159.9 215.2 159.9ZM190.3 128.5C190.2 130.1 190 135.4 191.8 141.1C194.6 150.2 200.8 155.9 210.2 158.1C211.9 158.5 213.6 158.7 215.3 158.7C231 158.7 243.2 142 243.4 141.8C243.5 141.6 243.7 141.5 243.9 141.5C244.1 141.5 244.3 141.6 244.4 141.7C244.4 141.7 247 144.1 258 138C264.7 134.3 264.2 133.1 264.2 133.1C264 132.5 261.4 132.3 258.4 133.2C256 133.9 247.9 135.9 244.9 133.9C244.2 133.4 243.8 132.8 243.7 131.9C243.4 129.5 242.4 127.5 241.8 127C241.7 127.2 241.6 127.6 241.6 128.3C241.4 132.7 242.7 136.4 242.7 136.5C242.8 136.8 242.6 137.2 242.3 137.3C228.8 142.5 219 143 213.4 138.6C208.5 134.8 208.3 128.5 208.5 126.3L190.3 128.5Z" fill="#002050"/>
<path d="M235 172.7C235.663 172.7 236.2 172.163 236.2 171.5C236.2 170.837 235.663 170.3 235 170.3C234.337 170.3 233.8 170.837 233.8 171.5C233.8 172.163 234.337 172.7 235 172.7Z" stroke="white" stroke-miterlimit="10"/>
<path d="M254.3 82.1L242.8 91.1L239.4 83.6" stroke="white" stroke-miterlimit="10"/>
<path d="M410 64.7C418.395 64.7 425.2 57.8947 425.2 49.5C425.2 41.1053 418.395 34.3 410 34.3C401.605 34.3 394.8 41.1053 394.8 49.5C394.8 57.8947 401.605 64.7 410 64.7Z" fill="white"/>
<path d="M405.6 57.5V41.5L417 49.5L405.6 57.5Z" fill="#ED8B00"/>
<path d="M439.1 120.9C442.8 120.9 445.8 117.9 445.8 114.2C445.8 110.5 442.8 107.5 439.1 107.5C435.4 107.5 432.4 110.5 432.4 114.2C432.4 117.9 435.4 120.9 439.1 120.9Z" stroke="white" stroke-width="2" stroke-miterlimit="10"/>
<path d="M433.7 119.6L428.8 124.5" stroke="white" stroke-width="2" stroke-miterlimit="10"/>
</svg>
